<?xml version="1.0" encoding="utf-8"?>
<!-- Svg Vector Icons : http://www.onlinewebfonts.com/icon -->
<!DOCTYPE svg PUBLIC "-//W3C//DTD SVG 1.1//EN" "http://www.w3.org/Graphics/SVG/1.1/DTD/svg11.dtd">
<svg version="1.1" xmlns="http://www.w3.org/2000/svg" xmlns:xlink="http://www.w3.org/1999/xlink" x="0px" y="0px" viewBox="0 0 1000 1000" enable-background="new 0 0 1000 1000" xml:space="preserve">
<metadata> Svg Vector Icons : http://www.onlinewebfonts.com/icon </metadata>
<g><g transform="matrix(1 0 0 -1 0 1920)"><path d="M112.1,930c-28.3,0-52.4,9.9-72.3,29.8c-19.9,19.9-29.8,44-29.8,72.3v775.8c0,28.3,9.9,52.4,29.8,72.3c19.9,19.9,44,29.8,72.3,29.8h775.8c28.3,0,52.4-9.9,72.3-29.8c19.9-19.9,29.8-44,29.8-72.3v-775.8c0-28.3-9.9-52.4-29.8-72.3c-19.9-19.9-44-29.8-72.3-29.8H112.1z M484.5,1652.8h6.9c17.4,0,34.7,4.6,51.9,13.7c17.2,9.1,31.9,20.9,44.1,35.3c24.2,30.2,36.3,62.6,36.3,97.2c0,4.6-0.3,9.3-0.8,13.9c-17.1-0.8-35.3-6.2-54.5-16.1c-19.2-9.9-35-22.3-47.6-37c-10.6-12.3-19.5-26.8-26.5-43.7c-7.1-16.9-10.6-33.6-10.6-50.2C483.7,1661.5,483.9,1657.1,484.5,1652.8z M385.3,1119.9c9.5,0.3,19.1,2,28.8,5.1c9.7,3.1,17.9,6.3,24.7,9.6s15.6,6.3,26.3,9.2c10.8,2.9,22.1,4.3,34.1,4.3c11.4,0,22.4-1.4,32.9-4.3s19.1-6,25.7-9.4c6.7-3.4,14.7-6.5,24.1-9.2c9.4-2.7,19-4.1,28.8-4.1c9.5,0,18.7,1.6,27.6,4.9s16.6,7.3,23.3,12c6.7,4.8,13.7,11.3,21,19.6c7.3,8.3,13.5,15.8,18.4,22.5c4.9,6.7,10.9,15.2,18,25.5c10.1,14.4,19.2,29.9,27.4,46.5c8.2,16.6,13.5,28.7,16.1,36.3c2.6,7.6,4.2,12.9,4.7,15.9c-1.1,0.3-2.9,1-5.5,2.2s-7,3.7-13.3,7.3c-6.3,3.7-12.3,7.9-18.2,12.7s-12.3,11.1-19.4,19c-7.1,7.9-13.2,16.4-18.4,25.5c-5.2,9.1-9.5,20.2-12.9,33.3c-3.4,13.1-5.1,26.8-5.1,41.2c0,16.1,2.6,31.6,7.8,46.5c5.2,15,11,27,17.4,36.1s13.8,17.8,22.3,25.9c8.4,8.2,14.5,13.5,18.2,15.9c3.7,2.4,6.9,4.5,9.6,6.1c-7.9,11.2-16.9,21.1-27.2,29.8c-10.2,8.7-19.9,15.4-29,20c-9.1,4.6-18.6,8.4-28.6,11.4c-9.9,3-18.1,4.9-24.5,5.7c-6.4,0.8-12.3,1.4-17.8,1.6c-3.8,0.3-7.6,0.4-11.4,0.4c-14.2,0-29.5-2.7-46.1-8.2s-31.6-10.9-45.1-16.3c-13.5-5.4-23.5-8.2-30-8.2c-4.9,0-10.8,1.1-17.8,3.3c-6.9,2.2-14,4.8-21.2,7.8c-7.2,3-14.7,6-22.5,9c-7.8,3-16.2,5.5-25.3,7.6c-9.1,2-17.8,3.1-25.9,3.1c-29.4,0-57-7.8-82.9-23.5c-25.9-15.7-46.3-36.7-61.3-63.1c-19.6-33.8-29.4-73.8-29.4-120.1c0-40,6.9-80.6,20.6-121.9c13.7-41.2,31.1-77,52.1-107.2c7.3-10.6,13.5-19.3,18.4-25.9c4.9-6.7,11.4-14.5,19.4-23.5c8-9,15.4-15.9,22-20.8c6.7-4.9,14.4-9.1,23.1-12.7S376.5,1119.6,385.3,1119.9z"/></g></g>
</svg>